<?xml version="1.0" encoding="UTF-8"?>
<svg id="Layer_1" data-name="Layer 1" xmlns="http://www.w3.org/2000/svg" xmlns:xlink="http://www.w3.org/1999/xlink" viewBox="0 0 500 500">
  <defs>
    <style>
      .cls-1 {
        fill: url(#linear-gradient-8);
      }

      .cls-2 {
        fill: url(#linear-gradient-7);
      }

      .cls-3 {
        fill: url(#linear-gradient-5);
      }

      .cls-4 {
        fill: url(#linear-gradient-6);
      }

      .cls-5 {
        fill: url(#linear-gradient-9);
      }

      .cls-6 {
        fill: url(#linear-gradient-4);
      }

      .cls-7 {
        fill: url(#linear-gradient-3);
      }

      .cls-8 {
        fill: url(#linear-gradient-2);
      }

      .cls-9 {
        fill: url(#linear-gradient);
      }

      .cls-10 {
        fill: url(#linear-gradient-10);
      }

      .cls-11 {
        fill: url(#linear-gradient-11);
      }

      .cls-12 {
        fill: url(#linear-gradient-12);
      }

      .cls-13 {
        fill: url(#linear-gradient-13);
      }

      .cls-14 {
        fill: url(#linear-gradient-14);
      }

      .cls-15 {
        fill: url(#linear-gradient-15);
      }

      .cls-16 {
        fill: url(#linear-gradient-16);
      }

      .cls-17 {
        fill: url(#linear-gradient-17);
      }
    </style>
    <linearGradient id="linear-gradient" x1="113.75" y1="262.42" x2="113.75" y2="236.62" gradientUnits="userSpaceOnUse">
      <stop offset="0" stop-color="#c496ff"/>
      <stop offset=".22" stop-color="#ad6eff"/>
      <stop offset=".41" stop-color="#9f55ff"/>
      <stop offset=".52" stop-color="#9a4cff"/>
    </linearGradient>
    <linearGradient id="linear-gradient-2" x1="137.09" x2="137.09" y2="235.22" xlink:href="#linear-gradient"/>
    <linearGradient id="linear-gradient-3" x1="160.7" y1="262.71" x2="160.7" y2="241.62" xlink:href="#linear-gradient"/>
    <linearGradient id="linear-gradient-4" x1="193.41" x2="193.41" xlink:href="#linear-gradient"/>
    <linearGradient id="linear-gradient-5" x1="210.85" x2="210.85" y2="232.98" xlink:href="#linear-gradient"/>
    <linearGradient id="linear-gradient-6" x1="228.75" x2="228.75" y2="241.69" xlink:href="#linear-gradient"/>
    <linearGradient id="linear-gradient-7" x1="252.9" y1="272.53" x2="252.9" y2="241.62" xlink:href="#linear-gradient"/>
    <linearGradient id="linear-gradient-8" x1="285.48" y1="262.71" x2="285.48" y2="241.62" xlink:href="#linear-gradient"/>
    <linearGradient id="linear-gradient-9" x1="303.8" x2="303.8" y2="233.61" xlink:href="#linear-gradient"/>
    <linearGradient id="linear-gradient-10" x1="332.05" y1="262.6" x2="332.05" y2="236.32" xlink:href="#linear-gradient"/>
    <linearGradient id="linear-gradient-11" x1="357.92" y1="262.71" x2="357.92" y2="241.62" xlink:href="#linear-gradient"/>
    <linearGradient id="linear-gradient-12" x1="382.12" x2="382.12" y2="241.69" xlink:href="#linear-gradient"/>
    <linearGradient id="linear-gradient-13" x1="401.66" x2="401.66" y2="236.91" xlink:href="#linear-gradient"/>
    <linearGradient id="linear-gradient-14" x1="420.66" y1="262.71" x2="420.66" y2="241.62" xlink:href="#linear-gradient"/>
    <linearGradient id="linear-gradient-15" x1="444.45" x2="444.45" y2="241.69" xlink:href="#linear-gradient"/>
    <linearGradient id="linear-gradient-16" x1="463.99" x2="463.99" y2="236.91" xlink:href="#linear-gradient"/>
    <linearGradient id="linear-gradient-17" x1="42.57" y1="275.62" x2="74.59" y2="220.17" gradientUnits="userSpaceOnUse">
      <stop offset=".09" stop-color="#d7b8ff"/>
      <stop offset=".21" stop-color="#c497ff"/>
      <stop offset=".38" stop-color="#ad6eff"/>
      <stop offset=".51" stop-color="#9f55ff"/>
      <stop offset=".59" stop-color="#9a4cff"/>
    </linearGradient>
  </defs>
  <g>
    <path class="cls-9" d="M123.73,236.62v5.04h-6.84v20.77h-6.28v-20.77h-6.84v-5.04h19.96Z"/>
    <path class="cls-8" d="M145.16,244.02c1.42,1.56,2.13,3.69,2.13,6.41v11.98h-6.25v-11.14c0-1.37-.36-2.44-1.07-3.2-.71-.76-1.67-1.14-2.87-1.14s-2.16.38-2.87,1.14c-.71.76-1.07,1.83-1.07,3.2v11.14h-6.28v-27.2h6.28v9.45c.64-.91,1.51-1.63,2.61-2.17,1.1-.54,2.34-.81,3.71-.81,2.35,0,4.24.78,5.66,2.33Z"/>
    <path class="cls-7" d="M170.88,253.67h-14.22c.1,1.28.51,2.25,1.23,2.92.72.67,1.61,1.01,2.66,1.01,1.57,0,2.66-.66,3.27-1.98h6.69c-.34,1.35-.96,2.56-1.86,3.64-.9,1.08-2.02,1.92-3.36,2.54-1.35.61-2.85.92-4.52.92-2.01,0-3.8-.43-5.37-1.29-1.57-.86-2.79-2.08-3.68-3.68-.88-1.59-1.32-3.45-1.32-5.59s.43-3.99,1.31-5.59c.87-1.59,2.09-2.82,3.66-3.68,1.57-.86,3.37-1.29,5.4-1.29s3.75.42,5.29,1.25c1.54.83,2.75,2.02,3.62,3.56.87,1.54,1.3,3.34,1.3,5.4,0,.59-.04,1.2-.11,1.84ZM164.56,250.18c0-1.08-.37-1.93-1.1-2.57-.74-.64-1.65-.96-2.76-.96s-1.94.31-2.66.92-1.17,1.48-1.34,2.61h7.87Z"/>
    <path class="cls-6" d="M197.05,262.42l-8.67-11.39v11.39h-6.28v-25.8h6.28v11.32l8.6-11.32h7.39l-10,12.64,10.36,13.16h-7.68Z"/>
    <path class="cls-3" d="M208.17,238.8c-.7-.65-1.05-1.45-1.05-2.41s.35-1.8,1.05-2.44c.7-.65,1.6-.97,2.7-.97s1.97.33,2.66.97c.7.65,1.05,1.46,1.05,2.44s-.35,1.76-1.05,2.41c-.7.65-1.59.97-2.66.97s-2-.32-2.7-.97ZM214,241.91v20.51h-6.28v-20.51h6.28Z"/>
    <path class="cls-4" d="M236.8,244.02c1.43,1.56,2.15,3.69,2.15,6.41v11.98h-6.25v-11.14c0-1.37-.36-2.44-1.07-3.2-.71-.76-1.67-1.14-2.87-1.14s-2.16.38-2.87,1.14c-.71.76-1.07,1.83-1.07,3.2v11.14h-6.28v-20.51h6.28v2.72c.64-.91,1.49-1.62,2.57-2.15,1.08-.53,2.29-.79,3.64-.79,2.4,0,4.32.78,5.75,2.33Z"/>
    <path class="cls-2" d="M254.92,242.5c1.09.59,1.93,1.36,2.52,2.32v-2.9h6.28v20.47c0,1.89-.37,3.6-1.12,5.13s-1.89,2.75-3.42,3.66c-1.53.91-3.44,1.36-5.71,1.36-3.04,0-5.5-.72-7.39-2.15-1.89-1.43-2.96-3.38-3.23-5.83h6.21c.2.78.66,1.4,1.4,1.86.74.45,1.64.68,2.72.68,1.3,0,2.33-.37,3.11-1.12.77-.75,1.16-1.94,1.16-3.58v-2.9c-.61.96-1.46,1.73-2.54,2.33-1.08.6-2.34.9-3.79.9-1.69,0-3.22-.43-4.59-1.3-1.37-.87-2.46-2.11-3.25-3.71-.8-1.6-1.19-3.46-1.19-5.57s.4-3.96,1.19-5.55c.8-1.59,1.88-2.82,3.25-3.68,1.37-.86,2.9-1.29,4.59-1.29,1.45,0,2.71.29,3.8.88ZM256.13,248.45c-.87-.91-1.93-1.36-3.18-1.36s-2.31.45-3.18,1.34c-.87.89-1.31,2.13-1.31,3.69s.43,2.81,1.31,3.73c.87.92,1.93,1.38,3.18,1.38s2.31-.45,3.18-1.36c.87-.91,1.31-2.14,1.31-3.71s-.44-2.8-1.31-3.71Z"/>
    <path class="cls-1" d="M279.99,261.43c-1.61-.86-2.87-2.08-3.79-3.68-.92-1.59-1.38-3.45-1.38-5.59s.47-3.96,1.4-5.57c.93-1.6,2.2-2.84,3.82-3.69,1.62-.86,3.43-1.29,5.44-1.29s3.82.43,5.44,1.29c1.62.86,2.89,2.09,3.82,3.69.93,1.6,1.4,3.46,1.4,5.57s-.47,3.96-1.41,5.57-2.23,2.84-3.86,3.69c-1.63.86-3.45,1.29-5.46,1.29s-3.82-.43-5.42-1.29ZM288.47,255.95c.85-.88,1.27-2.14,1.27-3.79s-.41-2.9-1.23-3.78c-.82-.88-1.83-1.32-3.03-1.32s-2.24.44-3.05,1.31-1.21,2.14-1.21,3.8.4,2.9,1.19,3.79,1.8,1.32,3,1.32,2.22-.44,3.07-1.32Z"/>
    <path class="cls-5" d="M309.77,247.13h-3.38v15.29h-6.28v-15.29h-2.28v-5.22h2.28v-.59c0-2.52.72-4.44,2.17-5.75,1.44-1.31,3.56-1.97,6.36-1.97.47,0,.81.01,1.03.04v5.33c-1.2-.07-2.05.1-2.54.52s-.74,1.16-.74,2.24v.18h3.38v5.22Z"/>
    <path class="cls-10" d="M321.09,242.66c1.1-2,2.64-3.55,4.61-4.67s4.21-1.67,6.71-1.67c3.06,0,5.68.81,7.87,2.43s3.64,3.82,4.37,6.62h-6.91c-.52-1.08-1.24-1.9-2.19-2.46-.94-.56-2.02-.84-3.22-.84-1.94,0-3.5.67-4.7,2.02-1.2,1.35-1.8,3.15-1.8,5.4s.6,4.06,1.8,5.4c1.2,1.35,2.77,2.02,4.7,2.02,1.2,0,2.27-.28,3.22-.84s1.67-1.38,2.19-2.46h6.91c-.73,2.79-2.19,4.99-4.37,6.6s-4.8,2.41-7.87,2.41c-2.5,0-4.74-.56-6.71-1.67s-3.51-2.66-4.61-4.65-1.65-4.25-1.65-6.8.55-4.82,1.65-6.82Z"/>
    <path class="cls-11" d="M352.42,261.43c-1.61-.86-2.87-2.08-3.79-3.68-.92-1.59-1.38-3.45-1.38-5.59s.47-3.96,1.4-5.57c.93-1.6,2.2-2.84,3.82-3.69,1.62-.86,3.43-1.29,5.44-1.29s3.82.43,5.44,1.29c1.62.86,2.89,2.09,3.82,3.69.93,1.6,1.4,3.46,1.4,5.57s-.47,3.96-1.41,5.57-2.23,2.84-3.86,3.69c-1.63.86-3.45,1.29-5.46,1.29s-3.82-.43-5.42-1.29ZM360.91,255.95c.85-.88,1.27-2.14,1.27-3.79s-.41-2.9-1.23-3.78c-.82-.88-1.83-1.32-3.03-1.32s-2.24.44-3.05,1.31-1.21,2.14-1.21,3.8.4,2.9,1.19,3.79,1.8,1.32,3,1.32,2.22-.44,3.07-1.32Z"/>
    <path class="cls-12" d="M390.17,244.02c1.43,1.56,2.15,3.69,2.15,6.41v11.98h-6.25v-11.14c0-1.37-.35-2.44-1.07-3.2-.71-.76-1.67-1.14-2.87-1.14s-2.16.38-2.87,1.14c-.71.76-1.07,1.83-1.07,3.2v11.14h-6.29v-20.51h6.29v2.72c.64-.91,1.49-1.62,2.57-2.15,1.08-.53,2.29-.79,3.64-.79,2.4,0,4.32.78,5.75,2.33Z"/>
    <path class="cls-13" d="M408.12,257.09v5.33h-3.2c-2.28,0-4.05-.56-5.33-1.67s-1.91-2.93-1.91-5.46v-8.16h-2.5v-5.22h2.5v-5h6.28v5h4.12v5.22h-4.12v8.23c0,.61.15,1.05.44,1.32s.78.4,1.47.4h2.24Z"/>
    <path class="cls-14" d="M430.84,253.67h-14.22c.1,1.28.51,2.25,1.23,2.92.72.67,1.61,1.01,2.66,1.01,1.57,0,2.66-.66,3.27-1.98h6.69c-.34,1.35-.96,2.56-1.86,3.64-.89,1.08-2.02,1.92-3.36,2.54s-2.86.92-4.52.92c-2.01,0-3.8-.43-5.37-1.29-1.57-.86-2.79-2.08-3.68-3.68-.88-1.59-1.32-3.45-1.32-5.59s.43-3.99,1.31-5.59c.87-1.59,2.09-2.82,3.66-3.68,1.57-.86,3.37-1.29,5.4-1.29s3.75.42,5.29,1.25c1.54.83,2.75,2.02,3.62,3.56s1.31,3.34,1.31,5.4c0,.59-.04,1.2-.11,1.84ZM424.52,250.18c0-1.08-.37-1.93-1.1-2.57-.74-.64-1.65-.96-2.76-.96s-1.94.31-2.66.92c-.72.61-1.17,1.48-1.34,2.61h7.87Z"/>
    <path class="cls-15" d="M452.5,244.02c1.43,1.56,2.15,3.69,2.15,6.41v11.98h-6.25v-11.14c0-1.37-.35-2.44-1.07-3.2-.71-.76-1.67-1.14-2.87-1.14s-2.16.38-2.87,1.14c-.71.76-1.07,1.83-1.07,3.2v11.14h-6.29v-20.51h6.29v2.72c.64-.91,1.49-1.62,2.57-2.15,1.08-.53,2.29-.79,3.64-.79,2.4,0,4.32.78,5.75,2.33Z"/>
    <path class="cls-16" d="M470.46,257.09v5.33h-3.2c-2.28,0-4.05-.56-5.33-1.67s-1.91-2.93-1.91-5.46v-8.16h-2.5v-5.22h2.5v-5h6.28v5h4.12v5.22h-4.12v8.23c0,.61.15,1.05.44,1.32s.78.4,1.47.4h2.24Z"/>
  </g>
  <path class="cls-17" d="M87.74,268.09H29.54v-40.62l19.5,13.23,9.35-11.37,9.08,10.88,20.27-12.45v40.33ZM35.44,262.19h46.41v-23.88l-15.63,9.6-7.79-9.33-8.24,10.03-14.75-10.01v23.59Z"/>
</svg>